<svg width="149" height="57" viewBox="0 0 149 57" fill="none" xmlns="http://www.w3.org/2000/svg">
<path d="M136.567 5.08004C133.583 -3.37944 123.895 0.41605 122.999 4.64054C121.767 0.138551 112.317 -3.21994 109.433 5.08604C106.222 14.337 121.879 22.6395 123 24C124.118 22.919 139.777 14.1805 136.567 5.08004Z" fill="#EB3223"/>
<path d="M110.262 11.8387H114.145L115.254 8.90909L116.364 15.9401L118.398 6.76074L119.137 18.479L120.986 10.4715L121.911 13.987L122.835 11.8387H127.088" stroke="white" stroke-linecap="round"/>
<ellipse cx="127.088" cy="11.7178" rx="0.84132" ry="0.901406" fill="white"/>
<path d="M19.2021 30.3408C16.9902 30.3408 15.2617 31.2051 14.0459 32.9189V24.3936H10.6768V46H14.0459V37.5332C14.0459 36.3613 14.4121 35.4092 15.1592 34.6768C15.8916 33.9443 16.873 33.5781 18.0889 33.5781C19.2461 33.5781 20.1836 33.9297 20.8721 34.6328C21.5605 35.3506 21.8975 36.2881 21.8975 37.4746V46H25.252V36.376C25.252 34.5449 24.6953 33.0801 23.5967 31.9814C22.4834 30.8828 21.0186 30.3408 19.2021 30.3408ZM44.4121 38.3828C44.4121 36.083 43.6357 34.1641 42.083 32.626C40.5156 31.1025 38.5674 30.3408 36.2236 30.3408C33.8945 30.3408 31.9609 31.1025 30.4082 32.626C28.8408 34.1641 28.0645 36.0684 28.0645 38.3389C28.0645 40.624 28.8408 42.5283 30.4082 44.0664C31.9609 45.6045 33.8945 46.3662 36.2236 46.3662C38.084 46.3662 39.7246 45.8828 41.1455 44.916C42.5664 43.9639 43.5479 42.7041 44.1045 41.1367H40.457C39.7686 42.4697 38.1719 43.334 36.2529 43.334C35.0957 43.334 34.0996 42.9971 33.2646 42.3232C32.4297 41.6641 31.9023 40.7705 31.6533 39.6426H44.3242C44.3828 39.2764 44.4121 38.8662 44.4121 38.3828ZM39.1094 34.3252C39.9443 34.9551 40.501 35.8047 40.7793 36.874H31.6826C31.9609 35.8193 32.5176 34.9697 33.3379 34.3252C34.1582 33.6953 35.125 33.373 36.2236 33.373C37.3223 33.373 38.2744 33.6953 39.1094 34.3252ZM59.3828 33.0654C58.0498 31.249 56.2627 30.3408 54.0215 30.3408C51.8682 30.3408 50.0664 31.1025 48.6455 32.626C47.21 34.1641 46.4922 36.0684 46.4922 38.3389C46.4922 40.624 47.21 42.5283 48.6455 44.0664C50.0664 45.6045 51.8682 46.3662 54.0215 46.3662C56.2627 46.3516 58.0498 45.4434 59.3828 43.627V46H62.752V30.707H59.3828V33.0654ZM54.6807 43.1143C53.3184 43.1143 52.1904 42.6602 51.2969 41.752C50.3887 40.8438 49.9346 39.7012 49.9346 38.3389C49.9346 36.9766 50.3887 35.8486 51.2969 34.9404C52.1904 34.0322 53.3184 33.5781 54.6807 33.5781C56.0137 33.5781 57.1416 34.0322 58.0352 34.9404C58.9287 35.8486 59.3828 36.9766 59.3828 38.3389C59.3828 39.7012 58.9287 40.8438 58.0352 41.752C57.1416 42.6602 56.0137 43.1143 54.6807 43.1143ZM70.1201 46V24.3936H66.751V46H70.1201ZM79.4219 30.707V26.1953L76.0527 26.9131V30.707H72.9619V33.7539H76.0527V46H79.4219V33.7539H82.6885V30.707H79.4219ZM93.8799 30.3408C91.668 30.3408 89.9395 31.2051 88.7236 32.9189V24.3936H85.3545V46H88.7236V37.5332C88.7236 36.3613 89.0898 35.4092 89.8369 34.6768C90.5693 33.9443 91.5508 33.5781 92.7666 33.5781C93.9238 33.5781 94.8613 33.9297 95.5498 34.6328C96.2383 35.3506 96.5752 36.2881 96.5752 37.4746V46H99.9297V36.376C99.9297 34.5449 99.373 33.0801 98.2744 31.9814C97.1611 30.8828 95.6963 30.3408 93.8799 30.3408ZM114.886 35.6143L122.532 25.3018H118.152L112.483 33.1973L106.756 25.3018H102.347L109.993 35.6143L102.229 46H106.609L112.425 38.0166L118.24 46H122.664L114.886 35.6143ZM125.447 25.3018V46H129.007V38.7637H132.61C134.573 38.7637 136.214 38.1191 137.547 36.8447C138.88 35.5703 139.539 33.9736 139.539 32.0547C139.539 30.1064 138.88 28.4951 137.562 27.2207C136.243 25.9463 134.588 25.3018 132.61 25.3018H125.447ZM129.007 35.4092V28.6562H132.552C133.489 28.6562 134.28 28.9785 134.91 29.623C135.54 30.2676 135.848 31.0732 135.848 32.0547C135.848 33.0068 135.54 33.8125 134.91 34.4424C134.28 35.0869 133.489 35.4092 132.552 35.4092H129.007Z" fill="#3C6AAC"/>
</svg>
