<svg width="299" height="256" viewBox="0 0 299 256" fill="none" xmlns="http://www.w3.org/2000/svg">
<path d="M195.093 79.0186L194.979 78.9615L167.76 63.2956L167.595 63.2171C154.878 56.7908 137.913 58.7258 119.662 70.5217C83.0038 94.2276 55.0708 148.794 57.27 192.4C58.3625 214.128 66.7452 229.03 79.405 235.585L79.5121 235.642L106.738 251.315L106.867 251.386C119.584 257.813 136.563 255.906 154.828 244.096C191.487 220.39 219.42 165.824 217.221 122.218C216.142 100.475 207.76 85.5735 195.093 79.0186Z" fill="#37474F"/>
<path d="M105.803 250.808L79.5476 235.628L79.4191 235.549C66.7593 228.98 58.3837 214.078 57.2841 192.379C56.3058 172.929 61.3255 151.315 70.4223 131.243L70.6008 130.801L97.6484 146.909C88.5373 166.981 83.5319 188.595 84.5101 208.045C85.5455 229.316 93.5927 244.039 105.803 250.808Z" fill="#263238"/>
<path d="M154.842 244.082C191.501 220.376 219.434 165.81 217.235 122.204C215.035 78.5975 183.532 62.4746 146.874 86.1805C110.215 109.886 82.2751 164.453 84.4744 208.052C86.6736 251.651 118.184 267.788 154.842 244.082Z" fill="#455A64"/>
<path d="M185.889 75.6338L139.941 170.293L130.052 159.583C127.103 156.513 123.068 154.721 118.813 154.594C114.558 154.466 110.422 156.013 107.295 158.901C104.168 161.789 102.298 165.788 102.087 170.04C101.876 174.291 103.341 178.456 106.167 181.639L132.222 209.865C135.087 212.978 139.058 214.844 143.283 215.063C143.582 215.063 143.882 215.063 144.182 215.063C144.971 215.062 145.758 215.005 146.539 214.892C149.161 214.51 151.651 213.492 153.789 211.926C155.927 210.36 157.65 208.294 158.806 205.909L211.501 97.3761C206.096 85.3232 197.099 77.8544 185.889 75.6338Z" fill="#37474F"/>
<path d="M223.204 44.4595C222.919 44.2953 222.619 44.1382 222.319 43.9954C218.951 42.3635 215.074 42.1341 211.537 43.3576C208.001 44.5811 205.094 47.1575 203.454 50.5217L144.989 170.951L141.662 167.38C140.701 166.331 139.584 165.437 138.349 164.731C136.606 163.732 129.195 159.44 127.995 158.748C125.071 157.056 121.638 156.469 118.318 157.093C114.998 157.717 112.012 159.511 109.902 162.149C107.792 164.787 106.698 168.094 106.819 171.47C106.939 174.846 108.266 178.066 110.559 180.547L136.614 208.766C137.59 209.826 138.725 210.729 139.977 211.443C141.676 212.407 149.059 216.692 150.273 217.391C151.952 218.364 153.813 218.979 155.741 219.2C157.669 219.421 159.621 219.242 161.476 218.674C163.332 218.107 165.05 217.163 166.524 215.902C167.998 214.64 169.197 213.089 170.045 211.343L239.213 68.8723C240.768 65.6613 241.052 61.981 240.007 58.5697C238.962 55.1583 236.666 52.2681 233.579 50.4788L223.204 44.4595Z" fill="#3C6AAC"/>
<path opacity="0.15" d="M223.204 44.4595C222.919 44.2953 222.619 44.1382 222.319 43.9954C218.951 42.3635 215.074 42.1341 211.537 43.3576C208.001 44.5811 205.094 47.1575 203.454 50.5217L144.989 170.951L141.662 167.38C140.701 166.331 139.584 165.437 138.349 164.731C136.606 163.732 129.195 159.44 127.995 158.748C125.071 157.056 121.638 156.469 118.318 157.093C114.998 157.717 112.012 159.511 109.902 162.149C107.792 164.787 106.698 168.094 106.819 171.47C106.939 174.846 108.266 178.066 110.559 180.547L136.614 208.766C137.59 209.826 138.725 210.729 139.977 211.443C141.676 212.407 149.059 216.692 150.273 217.391C151.952 218.364 153.813 218.979 155.741 219.2C157.669 219.421 159.621 219.242 161.476 218.674C163.332 218.107 165.05 217.163 166.524 215.902C167.998 214.64 169.197 213.089 170.045 211.343L239.213 68.8723C240.768 65.6613 241.052 61.981 240.007 58.5697C238.962 55.1583 236.666 52.2681 233.579 50.4788L223.204 44.4595Z" fill="black"/>
<path opacity="0.15" d="M150.237 217.363C149.038 216.649 141.669 212.364 139.948 211.415C138.696 210.7 137.562 209.797 136.585 208.737L110.53 180.519C109.381 179.265 108.469 177.813 107.838 176.234L118.199 182.211C118.827 183.795 119.744 185.247 120.905 186.495L146.953 214.714C147.911 215.754 149.018 216.646 150.237 217.363Z" fill="black"/>
<path opacity="0.15" d="M217.092 52.1643C215.731 53.3857 214.62 54.8602 213.822 56.5056L153.686 180.376L144.989 170.951L203.454 50.522C204.251 48.8737 205.364 47.3985 206.731 46.1807L217.092 52.1643Z" fill="black"/>
<path d="M232.687 49.9789C229.318 48.3509 225.442 48.1236 221.907 49.3467C218.371 50.5698 215.464 53.1437 213.822 56.5052L153.686 180.376L141.669 167.352C139.097 164.739 135.61 163.23 131.945 163.144C128.28 163.058 124.726 164.402 122.034 166.891C119.343 169.38 117.726 172.819 117.526 176.479C117.326 180.14 118.558 183.734 120.962 186.502L147.01 214.728C148.569 216.415 150.517 217.696 152.683 218.459C154.85 219.223 157.17 219.446 159.443 219.11C161.715 218.774 163.871 217.888 165.724 216.529C167.576 215.171 169.069 213.381 170.073 211.315L239.242 68.8437C240.872 65.4724 241.097 61.5921 239.868 58.055C238.639 54.5178 236.056 51.6131 232.687 49.9789Z" fill="#3C6AAC"/>
<path d="M219.81 18.2045L215.804 19.4112L212.912 9.75036L216.904 8.55078L219.81 18.2045Z" fill="#7D97C0"/>
<path d="M232.312 9.62918C232.346 10.0211 232.254 10.4134 232.05 10.7496C231.846 11.0858 231.54 11.3486 231.177 11.4999C231.437 11.7952 231.63 12.1437 231.741 12.521C231.97 13.235 231.363 14.2704 230.156 14.6631L220.995 17.4193L218.303 8.44388C218.303 8.44388 219.852 4.481 219.931 3.88121C220.01 3.28142 219.096 1.0822 218.967 0.668059C218.838 0.253919 220.324 -0.288746 221.495 0.182516C221.767 0.30361 222.01 0.481295 222.209 0.703757C222.63 1.15231 222.984 1.65984 223.258 2.21037C223.647 2.99501 223.838 3.86271 223.815 4.73805L229.363 3.04579C229.746 2.90726 230.166 2.90726 230.549 3.04579C230.799 3.14483 231.02 3.30699 231.19 3.51653C231.359 3.72607 231.472 3.97587 231.516 4.2417C231.561 4.50753 231.536 4.78036 231.444 5.03372C231.352 5.28708 231.196 5.51236 230.991 5.68771C231.322 5.66377 231.65 5.7514 231.925 5.93655C232.199 6.12169 232.404 6.39364 232.505 6.70878C232.59 7.07517 232.545 7.45957 232.378 7.79669C232.212 8.13381 231.934 8.40285 231.591 8.55813C231.961 8.808 232.22 9.19209 232.312 9.62918Z" fill="#7D97C0"/>
<path d="M277.203 118.377L272.069 117.142L275.061 104.761L280.195 105.996L277.203 118.377Z" fill="#7D97C0"/>
<path d="M296.318 116.985C296.105 117.433 295.755 117.803 295.319 118.04C294.883 118.277 294.383 118.37 293.89 118.306C293.983 118.793 293.971 119.294 293.855 119.777C293.626 120.74 292.32 121.447 290.777 121.069L279.024 118.213L281.795 106.71C281.795 106.71 286.015 103.375 286.479 102.768C286.943 102.161 287.343 99.1981 287.471 98.6483C287.6 98.0985 289.563 98.4698 290.542 99.7336C290.779 100.041 290.945 100.397 291.027 100.776C291.201 101.532 291.263 102.309 291.213 103.082C291.135 104.188 290.792 105.258 290.213 106.203L297.311 107.916C297.814 108.023 298.264 108.304 298.582 108.709C298.758 108.94 298.882 109.206 298.947 109.489C299.013 109.773 299.017 110.066 298.96 110.351C298.865 110.727 298.667 111.068 298.388 111.337C298.109 111.605 297.761 111.791 297.382 111.872C297.758 112.056 298.06 112.361 298.242 112.738C298.423 113.115 298.472 113.542 298.382 113.95C298.237 114.401 297.942 114.789 297.545 115.049C297.149 115.309 296.675 115.425 296.204 115.378C296.45 115.878 296.49 116.455 296.318 116.985Z" fill="#7D97C0"/>
<path d="M17.8811 110.972L23.4863 112.657L27.542 99.1334L21.944 97.4482L17.8811 110.972Z" fill="#7D97C0"/>
<path d="M0.365772 98.955C0.319027 99.5042 0.448085 100.054 0.734305 100.525C1.02053 100.996 1.44909 101.364 1.95807 101.576C1.59821 101.991 1.3305 102.477 1.17263 103.004C0.851313 104.053 1.70815 105.46 3.38613 105.96L16.2387 109.823L19.9946 97.2342C19.9946 97.2342 17.8168 91.679 17.7096 90.8079C17.6025 89.9368 18.8878 86.895 19.0592 86.3095C19.202 85.8382 17.1598 84.9743 15.489 85.6383C15.0917 85.794 14.7352 86.0382 14.4465 86.3524C13.8532 86.9899 13.3575 87.7118 12.9756 88.4945C12.4285 89.6033 12.1589 90.8285 12.1902 92.0646L4.4786 89.7369C3.93481 89.558 3.34515 89.5783 2.81491 89.794C2.46348 89.9323 2.15389 90.1593 1.91636 90.453C1.67883 90.7466 1.52146 91.0967 1.45961 91.4693C1.39775 91.8419 1.43352 92.2241 1.56343 92.5787C1.69334 92.9334 1.91295 93.2482 2.20084 93.4927C1.73479 93.4527 1.26898 93.5722 0.879779 93.8317C0.490578 94.0912 0.201077 94.4752 0.0587376 94.9208C-0.0599513 95.4349 0.0023916 95.9743 0.235244 96.4478C0.468096 96.9213 0.857196 97.2999 1.33686 97.5198C0.847633 97.8625 0.501894 98.3735 0.365772 98.955Z" fill="#7D97C0"/>
</svg>
